#define ac_adapter_width 16
#define ac_adapter_height 16
static unsigned char ac_adapter_bits[] = {
    0x00, 0x00, 0x00, 0x00, 0x00, 0x00, 0x00, 0x00, 0xc0, 0x1b, 0xe0, 0xfb,
    0xf0, 0xfb, 0xff, 0x1b, 0xff, 0x1b, 0xf0, 0xfb, 0xe0, 0xfb, 0xc0, 0x1b,
    0x00, 0x00, 0x00, 0x00, 0x00, 0x00, 0x00, 0x00
};
