#define tall_width 16
#define tall_height 16
static char tall_bits[] = {
  0x00, 0x00, 0xFE, 0x7F, 0xFE, 0x7F, 0x06, 0x60, 0x06, 0x60, 0x06, 0x60, 
  0x06, 0x60, 0xFE, 0x7F, 0xFE, 0x7F, 0x86, 0x61, 0x86, 0x61, 0x86, 0x61, 
  0x86, 0x61, 0xFE, 0x7F, 0xFE, 0x7F, 0x00, 0x00, };
